<svg version="1.2" xmlns="http://www.w3.org/2000/svg" viewBox="0 0 164 42" width="164" height="42">
	<title>logo-seguros-mundial-svg</title>
	<style>
		.s0 { fill: #0a99d6 } 
	</style>
	<path id="Layer" class="s0" d="m45.5 12.3q0.9 0.1 1.8-0.3 0.3-0.2 0.5-0.5 0.2-0.4 0.2-0.7 0-0.4-0.1-0.7-0.2-0.4-0.5-0.6-0.3-0.2-0.7-0.4-0.5-0.2-1.2-0.5-0.5-0.2-1-0.5-0.5-0.2-0.9-0.5-0.4-0.4-0.7-0.9-0.2-0.4-0.2-1 0-0.6 0.2-1.1 0.3-0.5 0.7-0.8c0.8-0.6 1.6-0.9 2.6-0.8q0.8 0 1.6 0.2 0.5 0.1 1 0.3l-0.3 1.1q-0.2-0.1-0.8-0.3-0.8-0.2-1.6-0.2-0.4 0-0.8 0.1-0.4 0.1-0.7 0.3-0.3 0.1-0.4 0.4-0.2 0.3-0.2 0.7 0 0.4 0.1 0.7 0.2 0.3 0.5 0.5 0.3 0.3 0.7 0.4 0.5 0.2 1 0.5 0.6 0.2 1.1 0.4 0.5 0.2 1 0.6 0.4 0.3 0.6 0.8 0.3 0.6 0.3 1.2 0 0.6-0.3 1.2-0.2 0.5-0.7 0.8c-0.9 0.6-1.8 0.8-2.8 0.7q-1 0.1-2-0.2-0.5-0.1-0.9-0.3l0.3-1.2q0.1 0.1 0.2 0.2 0.2 0.1 0.6 0.2 0.3 0.1 0.7 0.1 0.6 0.1 1.1 0.1z"/>
	<path id="Layer" fill-rule="evenodd" class="s0" d="m50.1 8.2q0-1.2 0.4-2.3 0.4-0.9 1-1.6 0.6-0.6 1.4-1 0.8-0.3 1.6-0.3 0.8 0 1.6 0.3 0.8 0.3 1.3 0.9c0.8 1.1 1.2 2.4 1.1 3.7q0 0.1 0 0.3 0 0.1 0 0.3h-7c0 1 0.3 2 0.9 2.8q0.5 0.5 1.2 0.8 0.7 0.2 1.5 0.2 0.8 0 1.6-0.2 0.5-0.1 0.9-0.3l0.2 1q-0.5 0.3-1 0.4-0.9 0.2-1.8 0.2-1.1 0-2.2-0.4-0.9-0.3-1.5-1-0.6-0.8-0.9-1.7-0.3-1-0.3-2.1zm7.1-0.8c0.1-0.9-0.2-1.7-0.7-2.4q-0.4-0.4-0.9-0.7-0.5-0.2-1.1-0.2-0.6 0-1.2 0.3-0.5 0.3-0.9 0.7-0.4 0.5-0.6 1.1-0.2 0.6-0.3 1.2z"/>
	<path id="Layer" fill-rule="evenodd" class="s0" d="m66.9 12q-0.2 0.2-0.4 0.3-0.3 0.1-0.6 0.2-0.3 0.2-0.7 0.3-0.5 0-1 0-0.9 0-1.7-0.2-0.8-0.3-1.4-0.9-0.7-0.6-1-1.5-0.4-1.1-0.3-2.2-0.1-1 0.3-2 0.3-0.8 0.9-1.5 0.6-0.7 1.5-1.1 1-0.4 2-0.4 1.1 0 2.2 0.2 0.7 0.2 1.4 0.4v9.1q0.1 0.9-0.2 1.7-0.3 0.9-1 1.5c-1 0.7-2.2 1-3.5 0.9q-0.8 0-1.7-0.1-0.7-0.1-1.3-0.3l0.2-1.2q0.6 0.3 1.3 0.4 0.8 0.1 1.6 0.1c0.9 0.1 1.8-0.1 2.6-0.7q0.4-0.4 0.6-1 0.2-0.7 0.2-1.3zm-0.1-7.6q-0.4-0.1-0.8-0.2-0.8-0.1-1.5-0.1-0.7 0-1.4 0.3-0.7 0.3-1.1 0.8-0.5 0.5-0.7 1.2-0.2 0.8-0.2 1.6 0 0.8 0.3 1.7 0.2 0.6 0.7 1.1 0.4 0.4 1 0.7 0.5 0.2 1.1 0.2 0.8 0 1.5-0.3 0.6-0.2 1.1-0.6z"/>
	<path id="Layer" class="s0" d="m78.1 12.9q-0.5 0.1-1.5 0.3-1.1 0.2-2.3 0.2-1 0-1.9-0.3-0.7-0.3-1.2-1-0.5-0.6-0.7-1.4-0.2-0.9-0.2-1.9v-5.6h1.3v5.2q0 0.9 0.1 1.8 0.2 0.7 0.5 1.2 0.4 0.5 0.9 0.7 0.7 0.2 1.4 0.2 0.8 0 1.5-0.1 0.5-0.1 0.9-0.2v-8.8h1.2z"/>
	<path id="Layer" class="s0" d="m83.9 3q0.5 0 1.1 0.1 0.4 0.1 0.8 0.2l-0.3 1.1q-0.3-0.1-0.6-0.2-0.6-0.1-1.2 0-0.7-0.1-1.3 0.1-0.4 0-0.7 0.2v8.7h-1.2v-9.5q0.6-0.3 1.3-0.4 1-0.3 2.1-0.3z"/>
	<path id="Layer" fill-rule="evenodd" class="s0" d="m95.2 8.2q0 1.1-0.3 2.2-0.3 0.9-1 1.6-0.6 0.7-1.4 1.1-0.9 0.4-1.8 0.3-1 0.1-1.8-0.3-0.9-0.4-1.5-1.1-0.6-0.7-0.9-1.6-0.4-1.1-0.4-2.2 0-1.1 0.4-2.1 0.3-0.9 0.9-1.7 0.6-0.6 1.4-1 0.9-0.4 1.9-0.4 0.9 0 1.8 0.4 0.8 0.4 1.4 1 0.7 0.8 1 1.7 0.3 1 0.3 2.1zm-1.3 0c0.1-1-0.3-2.1-0.9-3q-0.4-0.5-1-0.8-0.6-0.3-1.3-0.3-0.7 0-1.3 0.3-0.6 0.3-1.1 0.8c-0.5 0.9-0.8 2-0.8 3 0 1.1 0.3 2.1 0.8 3q0.5 0.5 1.1 0.8 0.6 0.3 1.3 0.3 0.7 0 1.3-0.3 0.6-0.3 1-0.8c0.6-0.9 1-1.9 0.9-3z"/>
	<path id="Layer" class="s0" d="m99 12.3q1 0.1 1.8-0.3 0.4-0.2 0.6-0.5 0.1-0.4 0.1-0.7 0-0.4-0.1-0.7-0.1-0.4-0.4-0.6-0.4-0.2-0.8-0.4-0.4-0.2-1.1-0.5-0.6-0.2-1.1-0.5-0.5-0.2-0.9-0.5-0.4-0.4-0.6-0.8-0.3-0.5-0.2-1.1-0.1-0.6 0.2-1.1 0.2-0.5 0.7-0.8c0.7-0.6 1.6-0.9 2.5-0.8q0.8 0 1.7 0.2 0.5 0.1 0.9 0.3l-0.3 1.1q-0.2-0.1-0.8-0.3-0.7-0.2-1.6-0.2-0.4 0-0.8 0.1-0.3 0.1-0.6 0.3-0.3 0.1-0.5 0.4-0.2 0.3-0.2 0.7 0 0.4 0.2 0.7 0.2 0.3 0.4 0.5 0.4 0.3 0.8 0.4 0.4 0.2 1 0.5 0.6 0.2 1.1 0.4 0.5 0.2 0.9 0.6 0.4 0.3 0.7 0.8 0.3 0.6 0.2 1.2 0.1 0.6-0.2 1.2-0.3 0.5-0.8 0.8c-0.8 0.6-1.8 0.8-2.7 0.7q-1.1 0.1-2.1-0.2-0.4-0.1-0.9-0.3l0.3-1.2q0.1 0.1 0.3 0.2 0.2 0.1 0.5 0.2 0.4 0.1 0.8 0.1 0.5 0.1 1 0.1"/>
	<path id="Layer" fill-rule="evenodd" class="s0" d="m25.2 4.5c2.1 0.9 4 2.2 5.6 3.8 1.7 1.7 2.9 3.6 3.8 5.7 0.9 2.1 1.4 4.4 1.4 6.7 0 3.4-1.1 6.8-3 9.7-1.9 2.9-4.6 5.1-7.8 6.4-3.2 1.4-6.7 1.7-10.1 1-3.4-0.6-6.5-2.3-9-4.8-2.4-2.4-4.1-5.5-4.8-8.9-0.6-3.4-0.3-6.9 1-10.1 1.4-3.2 3.6-5.9 6.5-7.8 2.8-2 6.2-3 9.7-3 2.3 0 4.5 0.5 6.7 1.3zm9.1 16.2c0-6.8-8.3-12.4-15.8-12.4-7.6 0-15.9 5.6-15.9 12.4 0 6.8 8.3 12.3 15.9 12.3 7.5 0 15.8-5.5 15.8-12.3z"/>
	<path id="Layer" class="s0" d="m154.6 39q-1.7 0-3.4-0.5c-0.8-0.2-1.6-0.6-2.2-1.2-0.5-0.5-0.8-1.1-1-1.9q-0.3-1.2-0.3-2.5v-20.1l4.9 0.8v18.3q0 0.6 0.1 1.2 0.1 0.5 0.4 0.9 0.3 0.4 0.8 0.6 0.7 0.3 1.4 0.3z"/>
	<path id="Layer" class="s0" d="m52.2 28.4c0.1-1.2-0.1-2.3-0.6-3.4q-0.4-0.5-0.9-0.8-0.6-0.2-1.2-0.2-0.5 0-1 0.1-0.5 0-0.9 0.1v13.6h-5v-17q0.7-0.2 1.5-0.3 0.9-0.2 1.8-0.4 0.9-0.1 1.9-0.2 1-0.1 2-0.1 1.6 0 3.1 0.5 1 0.4 1.9 1.1 1.1-0.8 2.4-1.2 1.2-0.4 2.5-0.4c1.2 0 2.4 0.2 3.5 0.6 0.8 0.3 1.6 0.9 2.1 1.6 0.6 0.8 0.9 1.6 1.1 2.5q0.3 1.6 0.3 3.3v10h-4.9v-9.4c0.1-1.2-0.2-2.3-0.6-3.4q-0.4-0.5-1-0.8-0.5-0.3-1.2-0.2-0.5 0-1.1 0.2-0.6 0.2-1.1 0.5 0.2 0.8 0.3 1.6 0 0.8 0 1.8v9.7h-4.9z"/>
	<path id="Layer" class="s0" d="m84.1 37.8h-7.4c-1.2 0.1-2.5-0.1-3.6-0.6-1-0.3-1.8-0.9-2.4-1.6-0.6-0.8-1-1.7-1.2-2.6q-0.4-1.7-0.4-3.4v-9.1h5v8.5c-0.1 1.2 0.1 2.4 0.6 3.4q0.4 0.6 1 0.9 0.6 0.3 1.3 0.2h2.2v-13h5z"/>
	<path id="Layer" class="s0" d="m86.6 20.5h7.4c1.3-0.1 2.5 0.1 3.7 0.6 0.9 0.3 1.7 0.9 2.4 1.6 0.5 0.8 1 1.7 1.2 2.6q0.4 1.8 0.3 3.7v8.8h-4.9v-8.2c0.1-1.3-0.1-2.6-0.6-3.7q-0.4-0.6-1-0.9-0.7-0.3-1.4-0.2h-2.2v13h-4.9z"/>
	<path id="Layer" class="s0" d="m127.8 37.8h-5v-17.2h5zm0.6-21.9q0 0.6-0.2 1.2-0.3 0.6-0.7 1c-0.6 0.6-1.4 0.9-2.2 0.9-0.9 0-1.6-0.3-2.3-0.9-0.6-0.6-0.9-1.4-0.9-2.2 0-0.9 0.3-1.7 0.9-2.3 0.7-0.6 1.4-0.9 2.3-0.9 0.8 0 1.6 0.3 2.2 0.9q0.4 0.4 0.7 1 0.2 0.6 0.2 1.3z"/>
	<path id="Layer" fill-rule="evenodd" class="s0" d="m145.1 27.2v10.7h-9.1c-3.4 0-6.2-2.4-6.2-5.3 0-3 2.8-5.4 6.2-5.4h4.8c0-1.8-1.3-2.4-2.6-2.3h-5.7l-1-4.3h6.7c3.5-0.1 6.9 1.9 6.9 6.6zm-4.3 3.6h-3.8q-0.4-0.1-0.7 0-0.4 0.1-0.6 0.4-0.3 0.2-0.4 0.5-0.2 0.3-0.2 0.7 0 0.3 0.2 0.6 0.1 0.4 0.4 0.6 0.2 0.2 0.6 0.3 0.3 0.1 0.7 0.1h3.8z"/>
	<path id="Layer" fill-rule="evenodd" class="s0" d="m160.1 19.7q-0.2-0.5-0.4-0.8-0.2-0.4-0.4-0.7h-0.7v1.5h-0.9v-4.1q0.3-0.1 0.7-0.1 0.3-0.1 0.6-0.1c0.5 0 1 0.1 1.4 0.4q0.2 0.2 0.4 0.5 0.1 0.2 0.1 0.6 0 0.3-0.2 0.6-0.2 0.3-0.5 0.5 0.2 0.3 0.4 0.7 0.3 0.5 0.5 1zm-1.4-2.3h0.3q0.3 0 0.7-0.1 0.1 0 0.2-0.2 0.1-0.1 0-0.3 0-0.1 0-0.2-0.1-0.1-0.2-0.2-0.3-0.1-0.6-0.1h-0.2q-0.1 0-0.2 0z"/>
	<path id="Layer" fill-rule="evenodd" class="s0" d="m159.2 21.5c-0.7 0-1.5-0.3-2.1-0.7-0.6-0.4-1.1-1-1.4-1.7-0.3-0.7-0.4-1.5-0.2-2.2 0.1-0.8 0.5-1.4 1-2 0.6-0.5 1.2-0.9 2-1 0.7-0.2 1.5-0.1 2.2 0.2 0.7 0.3 1.3 0.8 1.7 1.4 0.4 0.6 0.7 1.4 0.7 2.1 0 1-0.4 2-1.2 2.7-0.7 0.8-1.7 1.2-2.7 1.2zm0-7c-0.6 0-1.2 0.1-1.7 0.5-0.6 0.3-1 0.8-1.2 1.4-0.3 0.6-0.3 1.2-0.2 1.9 0.1 0.6 0.4 1.1 0.9 1.6 0.4 0.4 1 0.7 1.6 0.8 0.6 0.2 1.3 0.1 1.8-0.1 0.6-0.3 1.1-0.7 1.5-1.2 0.3-0.5 0.5-1.1 0.5-1.8 0-0.8-0.3-1.6-0.9-2.2-0.6-0.6-1.4-0.9-2.3-0.9z"/>
	<path id="Layer" fill-rule="evenodd" class="s0" d="m120.2 13v24.9h-8.4c-2.3-0.1-4.5-1-6.1-2.6-1.6-1.6-2.5-3.8-2.5-6 0-2.3 0.9-4.5 2.5-6.1 1.6-1.6 3.8-2.5 6-2.6h3.3v-7.1zm-5.3 12.1h-2.7c-1.1 0.1-2.1 0.6-2.9 1.4-0.7 0.8-1.1 1.9-1.1 2.9 0 1.1 0.4 2.2 1.1 3 0.8 0.8 1.8 1.3 2.9 1.4h2.7z"/>
	<path id="Layer" class="s0" d="m9.8 19c-0.2-0.1-0.2-0.3 0-0.3l14.9-5.4c0.2-0.1 0.3 0 0.2 0.2l-5.4 14.9c-0.1 0.2-0.2 0.2-0.3 0l-3.3-5.8q-0.2-0.3-0.5-0.5z"/>
</svg>